<mxfile host="app.diagrams.net" modified="2021-01-14T18:37:27.842Z" agent="5.0 (Windows NT 10.0; Win64; x64) AppleWebKit/537.36 (KHTML, like Gecko) Chrome/87.0.4280.141 Safari/537.36 Edg/87.0.664.75" etag="k95BmOzz5iE6NNa1_gDH" version="14.2.3" type="github">
  <diagram name="Page-1" id="e7e014a7-5840-1c2e-5031-d8a46d1fe8dd">
    <mxGraphModel dx="1240" dy="689" grid="1" gridSize="10" guides="1" tooltips="1" connect="1" arrows="1" fold="1" page="1" pageScale="1" pageWidth="1169" pageHeight="826" background="#ffffff" math="0" shadow="0">
      <root>
        <mxCell id="0" />
        <mxCell id="1" parent="0" />
        <mxCell id="38" value="" style="ellipse;shape=endState;fillColor=#000000;strokeColor=#ff0000" parent="1" vertex="1">
          <mxGeometry x="510" y="660" width="30" height="30" as="geometry" />
        </mxCell>
        <mxCell id="39" value="" style="endArrow=open;strokeColor=#FF0000;endFill=1;rounded=0" parent="1" source="33" target="38" edge="1">
          <mxGeometry relative="1" as="geometry" />
        </mxCell>
        <mxCell id="33" value="process&#xa;command" style="" parent="1" vertex="1">
          <mxGeometry x="470" y="560" width="110" height="50" as="geometry" />
        </mxCell>
        <mxCell id="6" value="" style="edgeStyle=elbowEdgeStyle;elbow=horizontal;verticalAlign=bottom;endArrow=open;endSize=8;strokeColor=#FF0000;endFill=1;rounded=0;exitX=0.667;exitY=0.667;exitDx=0;exitDy=0;exitPerimeter=0;" parent="1" source="5" target="7" edge="1">
          <mxGeometry x="360" y="90" as="geometry">
            <mxPoint x="375" y="160" as="targetPoint" />
            <mxPoint x="375" y="120" as="sourcePoint" />
            <Array as="points">
              <mxPoint x="525" y="100" />
              <mxPoint x="400" y="80" />
              <mxPoint x="370" y="75" />
            </Array>
          </mxGeometry>
        </mxCell>
        <mxCell id="7" value="Thống kê" style="" parent="1" vertex="1">
          <mxGeometry x="470" y="120" width="110" height="50" as="geometry" />
        </mxCell>
        <mxCell id="8" value="Thống kê số&#xa; đọc giả" style="fontStyle=0" parent="1" vertex="1">
          <mxGeometry x="320" y="270" width="110" height="50" as="geometry" />
        </mxCell>
        <mxCell id="9" value="" style="endArrow=open;strokeColor=#FF0000;endFill=1;rounded=0" parent="1" source="7" edge="1">
          <mxGeometry relative="1" as="geometry">
            <mxPoint x="525" y="210" as="targetPoint" />
          </mxGeometry>
        </mxCell>
        <mxCell id="12" value="" style="edgeStyle=elbowEdgeStyle;elbow=horizontal;strokeColor=#FF0000;endArrow=open;endFill=1;rounded=0;entryX=1;entryY=0.5;entryDx=0;entryDy=0;" parent="1" source="08BBxkjA_ng4PBXWEO6E-58" target="38" edge="1">
          <mxGeometry width="100" height="100" relative="1" as="geometry">
            <mxPoint x="570" y="460" as="sourcePoint" />
            <mxPoint x="600" y="680" as="targetPoint" />
            <Array as="points">
              <mxPoint x="700" y="460" />
            </Array>
          </mxGeometry>
        </mxCell>
        <mxCell id="08BBxkjA_ng4PBXWEO6E-63" value="No&lt;br&gt;" style="edgeLabel;html=1;align=center;verticalAlign=middle;resizable=0;points=[];" vertex="1" connectable="0" parent="12">
          <mxGeometry x="-0.7773" y="1" relative="1" as="geometry">
            <mxPoint as="offset" />
          </mxGeometry>
        </mxCell>
        <mxCell id="5" value="" style="ellipse;shape=startState;fillColor=#000000;strokeColor=#ff0000;" parent="1" vertex="1">
          <mxGeometry x="510" y="50" width="30" height="30" as="geometry" />
        </mxCell>
        <mxCell id="08BBxkjA_ng4PBXWEO6E-44" value="" style="shape=link;html=1;" edge="1" parent="1">
          <mxGeometry width="100" relative="1" as="geometry">
            <mxPoint x="280" y="210" as="sourcePoint" />
            <mxPoint x="820" y="210" as="targetPoint" />
          </mxGeometry>
        </mxCell>
        <mxCell id="08BBxkjA_ng4PBXWEO6E-47" value="" style="endArrow=open;strokeColor=#FF0000;endFill=1;rounded=0;entryX=0.5;entryY=0;entryDx=0;entryDy=0;" edge="1" parent="1" target="8">
          <mxGeometry relative="1" as="geometry">
            <mxPoint x="375" y="210" as="sourcePoint" />
            <mxPoint x="385" y="385" as="targetPoint" />
            <Array as="points" />
          </mxGeometry>
        </mxCell>
        <mxCell id="08BBxkjA_ng4PBXWEO6E-49" value="Thống kê số&#xa; sách mới nhập" style="fontStyle=0;verticalAlign=middle;textDirection=ltr;align=center;" vertex="1" parent="1">
          <mxGeometry x="470" y="270" width="110" height="50" as="geometry" />
        </mxCell>
        <mxCell id="08BBxkjA_ng4PBXWEO6E-50" value="" style="endArrow=open;strokeColor=#FF0000;endFill=1;rounded=0;entryX=0.5;entryY=0;entryDx=0;entryDy=0;" edge="1" parent="1" target="08BBxkjA_ng4PBXWEO6E-49">
          <mxGeometry relative="1" as="geometry">
            <mxPoint x="525" y="210" as="sourcePoint" />
            <mxPoint x="535" y="385" as="targetPoint" />
            <Array as="points" />
          </mxGeometry>
        </mxCell>
        <mxCell id="08BBxkjA_ng4PBXWEO6E-51" value="Thống kê số&#xa; sách còn lại" style="fontStyle=0" vertex="1" parent="1">
          <mxGeometry x="620" y="270" width="110" height="50" as="geometry" />
        </mxCell>
        <mxCell id="08BBxkjA_ng4PBXWEO6E-52" value="" style="endArrow=open;strokeColor=#FF0000;endFill=1;rounded=0;entryX=0.5;entryY=0;entryDx=0;entryDy=0;" edge="1" parent="1" target="08BBxkjA_ng4PBXWEO6E-51">
          <mxGeometry relative="1" as="geometry">
            <mxPoint x="675" y="210" as="sourcePoint" />
            <mxPoint x="685" y="385" as="targetPoint" />
            <Array as="points" />
          </mxGeometry>
        </mxCell>
        <mxCell id="08BBxkjA_ng4PBXWEO6E-53" value="" style="shape=link;html=1;" edge="1" parent="1">
          <mxGeometry width="100" relative="1" as="geometry">
            <mxPoint x="280" y="370" as="sourcePoint" />
            <mxPoint x="820" y="370" as="targetPoint" />
          </mxGeometry>
        </mxCell>
        <mxCell id="08BBxkjA_ng4PBXWEO6E-54" value="" style="endArrow=open;strokeColor=#FF0000;endFill=1;rounded=0;exitX=0.5;exitY=1;exitDx=0;exitDy=0;" edge="1" parent="1" source="8">
          <mxGeometry relative="1" as="geometry">
            <mxPoint x="375" y="330" as="sourcePoint" />
            <mxPoint x="375" y="370" as="targetPoint" />
            <Array as="points" />
          </mxGeometry>
        </mxCell>
        <mxCell id="08BBxkjA_ng4PBXWEO6E-55" value="" style="endArrow=open;strokeColor=#FF0000;endFill=1;rounded=0;exitX=0.5;exitY=1;exitDx=0;exitDy=0;" edge="1" parent="1">
          <mxGeometry relative="1" as="geometry">
            <mxPoint x="524.8" y="320" as="sourcePoint" />
            <mxPoint x="524.8" y="370" as="targetPoint" />
            <Array as="points" />
          </mxGeometry>
        </mxCell>
        <mxCell id="08BBxkjA_ng4PBXWEO6E-56" value="" style="endArrow=open;strokeColor=#FF0000;endFill=1;rounded=0;exitX=0.5;exitY=1;exitDx=0;exitDy=0;" edge="1" parent="1">
          <mxGeometry relative="1" as="geometry">
            <mxPoint x="674.8" y="320" as="sourcePoint" />
            <mxPoint x="674.8" y="370" as="targetPoint" />
            <Array as="points" />
          </mxGeometry>
        </mxCell>
        <mxCell id="08BBxkjA_ng4PBXWEO6E-57" value="" style="endArrow=open;strokeColor=#FF0000;endFill=1;rounded=0;exitX=0.5;exitY=1;exitDx=0;exitDy=0;" edge="1" parent="1">
          <mxGeometry relative="1" as="geometry">
            <mxPoint x="524.8" y="370" as="sourcePoint" />
            <mxPoint x="524.8" y="420" as="targetPoint" />
            <Array as="points" />
          </mxGeometry>
        </mxCell>
        <mxCell id="08BBxkjA_ng4PBXWEO6E-58" value="&lt;font face=&quot;helvetica&quot;&gt;Chọn bảng thóng kê&lt;/font&gt;" style="rhombus;whiteSpace=wrap;html=1;align=center;" vertex="1" parent="1">
          <mxGeometry x="482.5" y="420" width="85" height="80" as="geometry" />
        </mxCell>
        <mxCell id="08BBxkjA_ng4PBXWEO6E-59" value="" style="endArrow=open;strokeColor=#FF0000;endFill=1;rounded=0;exitX=0.5;exitY=1;exitDx=0;exitDy=0;entryX=0.5;entryY=0;entryDx=0;entryDy=0;" edge="1" parent="1" target="33">
          <mxGeometry relative="1" as="geometry">
            <mxPoint x="524.8" y="500" as="sourcePoint" />
            <mxPoint x="524.8" y="550" as="targetPoint" />
            <Array as="points" />
          </mxGeometry>
        </mxCell>
        <mxCell id="08BBxkjA_ng4PBXWEO6E-64" value="Text" style="edgeLabel;html=1;align=center;verticalAlign=middle;resizable=0;points=[];" vertex="1" connectable="0" parent="08BBxkjA_ng4PBXWEO6E-59">
          <mxGeometry x="-0.374" relative="1" as="geometry">
            <mxPoint as="offset" />
          </mxGeometry>
        </mxCell>
      </root>
    </mxGraphModel>
  </diagram>
</mxfile>
